# xmcd
#
# Track frame offsets:
#	300
#	31037
#	70390
#	100505
#	132048
#	162196
#	197688
#	233191
#	250046
#	278222
#	297319
#	321318
#
# Disc length: 4758 seconds
#
# Revision: 0
# Processed by: cddbd v1.4PL0 Copyright (c) Steve Scherf et al.
# Submitted via: EasyCDDAExtractor 5.0.5.1
#
DISCID=a512920c
DTITLE=Various Artist - FRESCA RECORDS -ONE TRYBAL ITALY MARZEC 2003
DYEAR=2003
DGENRE=Acid
TTITLE0=E.C.O.H. - THE SOUN OF SILENCE(HIT MIX)
TTITLE1=E.C.O.H. - THE SOUN OF SILENCE(TRANCE EDITION)
TTITLE2=BLUE LIGHT  - FOLLOW ME(EXTENTED MIX)
TTITLE3=BLUE LIGHT  - FOLLOW ME(TEKNO MIX)
TTITLE4=GEE M.P. - SKYLIGHT(1ST PROMO MIX)
TTITLE5=K.H.Z. - MUSIC(VOCAL CLUB MIX)
TTITLE6=K.H.Z. - MUSIC(2ND CLUB MIX)
TTITLE7=7TH SENSE  - ANGEL EYES(RADIO VOCAL MIX)
TTITLE8=7TH SENSE  - ANGEL EYES(EXTENTED VOCAL MIX)
TTITLE9=G.A.S. - FOLLOW THE BASS(ORIGINAL SHORT MIX)
TTITLE10=G.A.S. - FOLLOW THE BASS(CLUB MIX)
TTITLE11=SACHI TOYAMA - NO COMMENT(CLUB MIX)
EXTD=
EXTT0=
EXTT1=
EXTT2=
EXTT3=
EXTT4=
EXTT5=
EXTT6=
EXTT7=
EXTT8=
EXTT9=
EXTT10=
EXTT11=
PLAYORDER=
